<?xml version="1.0" standalone="no"?>
<!DOCTYPE svg PUBLIC "-//W3C//DTD SVG 20010904//EN"
 "http://www.w3.org/TR/2001/REC-SVG-20010904/DTD/svg10.dtd">
<svg version="1.0" xmlns="http://www.w3.org/2000/svg"
 width="387.000000pt" height="418.000000pt" viewBox="0 0 387.000000 418.000000"
 preserveAspectRatio="xMidYMid meet">

<g transform="translate(0.000000,418.000000) scale(0.100000,-0.100000)"
fill="#000000" stroke="none">
<path d="M1858 3949 c3 -68 0 -94 -10 -100 -8 -5 21 -9 70 -9 72 0 82 2 81 18
0 10 -3 12 -6 5 -3 -8 -25 -13 -60 -13 l-54 0 3 95 c2 79 1 95 -12 95 -12 0
-14 -15 -12 -91z"/>
<path d="M1960 4036 c0 -2 7 -6 15 -10 8 -3 15 -1 15 4 0 6 -7 10 -15 10 -8 0
-15 -2 -15 -4z"/>
<path d="M2156 4001 c-27 -29 -12 -56 43 -80 76 -32 92 -69 39 -91 -23 -9 -23
-9 -1 -9 39 -2 66 44 45 75 -4 6 -30 23 -58 37 -57 29 -71 49 -48 72 9 8 11
15 6 15 -5 0 -17 -9 -26 -19z"/>
<path d="M1532 4003 c-16 -3 -20 -8 -14 -16 12 -16 35 -164 27 -177 -7 -11 -3
-12 18 -5 12 5 12 16 1 73 -7 37 -13 79 -14 95 0 25 3 27 43 27 49 0 67 -13
67 -49 0 -33 -8 -44 -45 -64 -16 -9 -24 -16 -16 -17 7 0 26 -11 43 -25 34 -28
50 -31 67 -11 10 12 9 14 -7 9 -12 -3 -30 5 -48 21 -16 14 -23 26 -16 26 19 0
52 38 52 60 0 37 -35 60 -87 59 -27 -1 -58 -4 -71 -6z"/>
<path d="M2270 3992 c6 -13 14 -21 18 -18 3 4 -2 14 -12 24 -18 16 -18 16 -6
-6z"/>
<path d="M1955 3940 c-3 -5 -1 -10 4 -10 6 0 11 5 11 10 0 6 -2 10 -4 10 -3 0
-8 -4 -11 -10z"/>
<path d="M1323 3923 c9 -9 19 -14 23 -11 10 10 -6 28 -24 28 -15 0 -15 -1 1
-17z"/>
<path d="M2531 3926 c-8 -10 -9 -15 -1 -18 6 -2 13 -42 17 -90 5 -72 9 -87 24
-91 15 -4 16 -1 8 20 -5 13 -9 41 -9 62 0 56 -12 131 -20 131 -4 0 -13 -6 -19
-14z"/>
<path d="M1215 3898 c-52 -62 -12 -153 71 -164 l39 -5 -35 13 c-48 18 -83 73
-76 118 3 19 15 43 27 53 12 9 17 17 11 17 -6 0 -22 -14 -37 -32z"/>
<path d="M1700 3891 c0 -5 5 -13 10 -16 6 -3 10 -2 10 4 0 5 -4 13 -10 16 -5
3 -10 2 -10 -4z"/>
<path d="M2484 3868 l-29 -33 33 29 c30 28 37 36 29 36 -2 0 -16 -15 -33 -32z"/>
<path d="M2135 3850 c10 -11 20 -20 23 -20 3 0 -3 9 -13 20 -10 11 -20 20 -23
20 -3 0 3 -9 13 -20z"/>
<path d="M1367 3843 c-15 -4 -16 -6 -2 -26 21 -31 19 -44 -12 -61 -16 -8 -24
-15 -20 -16 5 0 22 8 38 17 24 14 28 23 26 55 -1 21 -4 37 -7 37 -3 -1 -13 -3
-23 -6z"/>
<path d="M2806 3818 c3 -13 11 -65 19 -117 15 -103 26 -126 45 -91 7 12 8 20
2 16 -6 -3 -14 28 -22 82 -12 93 -24 132 -39 132 -6 0 -8 -10 -5 -22z"/>
<path d="M2427 3804 c-19 -16 -23 -24 -13 -24 9 0 16 5 16 10 0 6 10 14 22 19
12 4 17 10 12 13 -5 4 -22 -5 -37 -18z"/>
<path d="M974 3791 c4 -6 13 -11 20 -11 18 0 54 -41 67 -78 9 -25 8 -38 -5
-64 l-16 -33 20 24 c30 35 27 93 -7 130 -27 30 -94 57 -79 32z"/>
<path d="M2764 3748 c-14 -29 -33 -60 -41 -69 -12 -14 -12 -17 2 -22 9 -4 15
-1 15 9 0 8 14 41 30 74 17 33 28 60 25 60 -2 0 -17 -24 -31 -52z"/>
<path d="M886 3748 c-41 -59 1 -152 74 -164 l35 -6 -34 19 c-19 10 -43 30 -54
44 -21 30 -25 92 -7 114 7 8 10 15 7 15 -3 0 -13 -10 -21 -22z"/>
<path d="M2927 3735 c-9 -19 -15 -35 -12 -35 7 0 37 61 33 66 -3 2 -12 -12
-21 -31z"/>
<path d="M965 3690 c-3 -5 -2 -10 4 -10 5 0 13 5 16 10 3 6 2 10 -4 10 -5 0
-13 -4 -16 -10z"/>
<path d="M3102 3662 c4 -12 -94 -141 -110 -144 -8 -2 0 -13 20 -27 18 -14 27
-17 20 -8 -15 18 -14 20 47 100 28 36 49 56 58 53 8 -3 11 -1 8 4 -8 13 -46
33 -43 22z"/>
<path d="M3186 3587 c39 -82 -39 -165 -119 -126 -21 10 -21 10 -3 -5 25 -20
85 -21 113 -1 12 8 27 31 33 50 9 28 8 40 -6 70 -9 19 -20 38 -25 41 -5 3 -2
-10 7 -29z"/>
<path d="M656 3587 c-16 -12 -14 -13 17 -9 27 3 38 -1 51 -19 21 -31 20 -42
-8 -76 l-24 -28 60 0 c41 0 62 4 68 15 15 23 12 36 -3 15 -11 -14 -21 -16 -50
-11 l-37 7 15 30 c31 60 -34 116 -89 76z"/>
<path d="M597 3545 c-15 -14 -24 -25 -19 -25 5 0 36 -34 69 -75 51 -63 63 -72
73 -60 7 9 8 15 2 15 -5 0 -35 30 -65 68 -51 62 -54 68 -40 85 23 24 13 21
-20 -8z"/>
<path d="M790 3520 c0 -5 7 -10 16 -10 8 0 12 5 9 10 -3 6 -10 10 -16 10 -5 0
-9 -4 -9 -10z"/>
<path d="M1840 3335 c0 -184 -34 -272 -121 -318 -95 -50 -280 46 -459 240 -35
37 -60 59 -56 48 135 -349 181 -661 127 -855 -22 -78 -47 -202 -56 -280 l-5
-45 -78 76 c-128 126 -253 176 -417 166 -49 -3 -117 -14 -150 -24 l-60 -20 45
-12 c177 -47 252 -87 295 -156 54 -87 33 -165 -72 -266 -69 -67 -124 -105
-247 -171 l-91 -49 165 7 c322 12 539 -37 727 -164 71 -48 144 -86 199 -102
35 -10 49 -10 90 4 27 9 87 25 134 35 47 11 75 20 64 20 -38 2 -177 78 -245
134 -65 54 -137 141 -187 226 -23 40 -27 56 -25 119 2 134 69 297 183 451 l62
84 -38 -23 c-22 -13 -61 -39 -88 -59 l-50 -35 30 54 c45 84 154 187 254 240
84 45 85 46 127 126 50 94 83 212 83 294 0 79 -33 201 -76 279 -61 113 -64
112 -64 -24z"/>
<path d="M1526 3407 c-54 -30 -89 -97 -83 -156 6 -56 32 -90 90 -120 43 -21
52 -22 94 -12 89 23 133 77 133 164 0 115 -129 184 -234 124z"/>
<path d="M3325 3411 c-38 -17 -67 -58 -67 -96 0 -20 3 -39 6 -42 3 -4 6 8 6
26 0 24 9 42 35 68 31 31 40 35 75 31 22 -2 36 0 32 4 -13 13 -66 18 -87 9z"/>
<path d="M399 3343 l-49 -46 27 -17 c16 -9 34 -24 42 -34 8 -9 31 -30 51 -46
35 -28 39 -29 51 -13 8 9 9 14 3 10 -6 -3 -41 22 -78 55 l-69 62 32 28 c17 15
40 28 50 28 30 0 54 -35 49 -71 -5 -29 -4 -30 9 -14 20 29 16 72 -9 89 -35 25
-55 19 -109 -31z"/>
<path d="M3452 3347 c9 -22 8 -34 -5 -62 -32 -68 -104 -88 -155 -44 l-27 23
26 -28 c17 -18 40 -29 67 -33 37 -5 45 -2 77 30 39 39 47 88 20 123 -14 18
-14 17 -3 -9z"/>
<path d="M3350 3310 c0 -5 5 -10 10 -10 6 0 10 5 10 10 0 6 -4 10 -10 10 -5 0
-10 -4 -10 -10z"/>
<path d="M303 3058 c-47 -76 -131 -260 -168 -370 -196 -589 -88 -1246 288
-1743 82 -108 263 -289 364 -363 101 -74 232 -156 239 -150 3 3 -30 27 -73 54
-685 423 -1024 1208 -863 1993 31 149 95 324 175 478 40 79 72 143 69 143 -2
0 -16 -19 -31 -42z"/>
<path d="M3520 3097 c0 -4 11 -25 24 -46 127 -201 226 -497 255 -763 78 -712
-273 -1424 -886 -1798 -40 -25 -73 -48 -73 -53 0 -17 180 102 292 192 139 112
304 299 405 461 183 293 283 647 283 998 0 305 -60 563 -194 837 -57 116 -105
194 -106 172z"/>
<path d="M594 2186 c-81 -36 -118 -152 -72 -230 63 -107 208 -100 266 14 28
56 28 96 -1 151 -37 71 -117 98 -193 65z"/>
<path d="M1171 393 c-18 -43 -39 -88 -47 -100 -15 -24 -4 -32 14 -10 10 12 82
173 82 183 0 2 -4 4 -9 4 -4 0 -23 -35 -40 -77z"/>
<path d="M2645 450 c3 -5 11 -10 16 -10 6 0 7 5 4 10 -3 6 -11 10 -16 10 -6 0
-7 -4 -4 -10z"/>
<path d="M2547 407 c-4 -10 -2 -27 3 -38 9 -16 22 -19 79 -19 84 0 103 -15 76
-57 l-18 -28 21 19 c25 21 29 58 9 74 -7 6 -44 12 -82 14 -64 3 -70 5 -75 28
-5 22 -7 23 -13 7z"/>
<path d="M1337 357 c-25 -80 -23 -123 8 -143 14 -9 28 -14 32 -10 3 3 1 6 -5
6 -6 0 -19 11 -27 24 -15 23 -15 30 1 88 9 35 21 69 27 76 7 8 5 12 -5 12 -9
0 -21 -21 -31 -53z"/>
<path d="M2385 336 c32 -32 41 -86 21 -127 -16 -32 -16 -32 4 -14 42 38 31
128 -19 155 -30 16 -32 12 -6 -14z"/>
<path d="M1653 319 c9 -13 37 -61 63 -106 47 -85 57 -95 68 -67 8 21 8 24 -4
21 -6 -1 -32 36 -59 83 -28 49 -56 87 -67 89 -17 3 -17 2 -1 -20z"/>
<path d="M2235 305 c-21 -48 -12 -87 27 -120 40 -34 53 -32 18 4 -36 35 -47
75 -32 115 17 44 5 45 -13 1z"/>
<path d="M1930 310 c0 -5 7 -7 15 -4 8 4 15 8 15 10 0 2 -7 4 -15 4 -8 0 -15
-4 -15 -10z"/>
<path d="M2012 238 c5 -46 6 -91 4 -101 -3 -11 0 -17 7 -14 7 2 12 13 11 25 0
12 -1 56 -2 97 -1 54 -6 75 -15 75 -10 0 -11 -17 -5 -82z"/>
<path d="M1065 280 c3 -5 8 -10 11 -10 2 0 4 5 4 10 0 6 -5 10 -11 10 -5 0 -7
-4 -4 -10z"/>
<path d="M1642 260 c0 -14 2 -19 5 -12 2 6 2 18 0 25 -3 6 -5 1 -5 -13z"/>
<path d="M1791 244 c0 -11 3 -14 6 -6 3 7 2 16 -1 19 -3 4 -6 -2 -5 -13z"/>
<path d="M1628 165 c-3 -16 -1 -25 7 -25 8 0 10 9 7 25 -2 14 -6 25 -7 25 -1
0 -5 -11 -7 -25z"/>
</g>
</svg>
